<?xml version="1.0" encoding="UTF-8"?>
<svg id="Layer_1" data-name="Layer 1" xmlns="http://www.w3.org/2000/svg" viewBox="0 0 1000 1000">
  <defs>
    <style>
      .cls-1 {
        fill: #662d91;
      }

      .cls-2 {
        font-family: Montserrat-Bold, Montserrat;
        font-size: 291.77px;
        font-weight: 700;
      }
    </style>
  </defs>
  <g>
    <text class="cls-2" transform="translate(39.98 598.13)"><tspan x="0" y="0">1</tspan></text>
    <path d="M214.71,507.83v90h-45v-161.4h45v18c13.6-13.8,28.9-20.7,45.9-20.7s31.25,6,42.75,18c11.5,12,17.25,28,17.25,48v98.1h-45v-91.2c0-24.8-9.1-37.2-27.3-37.2-9,0-16.85,3.25-23.55,9.75-6.7,6.5-10.05,16.05-10.05,28.65Z"/>
    <path d="M413.61,427.13v10.8h39v32.4h-39v127.5h-45.3v-127.5h-18.9v-32.4h18.9v-9.9c0-17.6,5.35-31.55,16.05-41.85,10.7-10.3,24-15.45,39.9-15.45s30.35,6,43.35,18l-16.2,30.3c-6.6-7.6-13.9-11.4-21.9-11.4-4.6,0-8.4,1.65-11.4,4.95s-4.5,8.15-4.5,14.55Z"/>
    <path d="M484.25,415.88c-5.1-5.1-7.65-11.35-7.65-18.75s2.55-13.65,7.65-18.75c5.1-5.1,11.35-7.65,18.75-7.65s13.65,2.55,18.75,7.65c5.1,5.1,7.65,11.35,7.65,18.75s-2.55,13.65-7.65,18.75c-5.1,5.1-11.35,7.65-18.75,7.65s-13.65-2.55-18.75-7.65ZM525.5,597.83h-45v-161.4h45v161.4Z"/>
    <path d="M613.1,507.83v90h-45v-161.4h45v18c13.6-13.8,28.9-20.7,45.9-20.7s31.25,6,42.75,18c11.5,12,17.25,28,17.25,48v98.1h-45v-91.2c0-24.8-9.1-37.2-27.3-37.2-9,0-16.85,3.25-23.55,9.75-6.7,6.5-10.05,16.05-10.05,28.65Z"/>
  </g>
  <path class="cls-1" d="M758.84,562.7c-11-13.9-16.5-31.25-16.49-52.05,0-20.8,5.51-38.1,16.51-51.9,11-13.8,24.56-20.7,40.65-20.69,16.1,0,29.95,6.21,41.55,18.61,13.4-17.4,31.01-26.09,52.8-26.09,18.4,0,33.9,7.41,46.5,22.21,12.6,14.81,18.89,34.11,18.89,57.9,0,23.8-6.31,43.1-18.91,57.9-12.6,14.8-28.1,22.2-46.5,22.19-21.8,0-39.4-8.71-52.8-26.11-11.8,12.6-25.7,18.9-41.7,18.89-16,0-29.5-6.95-40.5-20.86ZM821.54,530.61c4.8-5.7,7.2-12.35,7.2-19.95,0-7.6-2.4-14.25-7.2-19.95s-10.75-8.55-17.85-8.55c-7.1,0-13.05,2.8-17.85,8.4-4.8,5.6-7.2,12.3-7.2,20.1,0,7.8,2.4,14.5,7.2,20.1,4.8,5.6,10.75,8.4,17.85,8.4,7.1,0,13.05-2.85,17.85-8.55ZM913.19,533.47c4.7-7,7.05-14.6,7.05-22.8,0-8.2-2.34-15.8-7.05-22.8-4.7-7-11.55-10.5-20.55-10.5s-15.9,3.4-20.7,10.2c-4.8,6.8-7.2,14.5-7.2,23.1,0,8.6,2.4,16.3,7.2,23.1,4.8,6.8,11.7,10.2,20.7,10.2,9,0,15.85-3.5,20.55-10.5Z"/>
</svg>